<svg xmlns="http://www.w3.org/2000/svg" xmlns:xlink="http://www.w3.org/1999/xlink" width="450" zoomAndPan="magnify" viewBox="0 0 337.5 225" height="300" preserveAspectRatio="xMidYMid meet" version="1.2"><defs><clipPath id="25bf50c975"><path d="M 0 0.167969 L 337 0.167969 L 337 224.832031 L 0 224.832031 Z M 0 0.167969 "/></clipPath><clipPath id="95b6825760"><path d="M 86.695312 69.554688 L 249.953125 69.554688 L 249.953125 155.675781 L 86.695312 155.675781 Z M 86.695312 69.554688 "/></clipPath></defs><g id="9193375177"><g clip-rule="nonzero" clip-path="url(#25bf50c975)"><path style=" stroke:none;fill-rule:nonzero;fill:#ffffff;fill-opacity:1;" d="M 0 0.167969 L 337 0.167969 L 337 224.832031 L 0 224.832031 Z M 0 0.167969 "/><path style=" stroke:none;fill-rule:nonzero;fill:#dee2e6;fill-opacity:1;" d="M 0 0.167969 L 337 0.167969 L 337 224.832031 L 0 224.832031 Z M 0 0.167969 "/></g><g clip-rule="nonzero" clip-path="url(#95b6825760)"><path style=" stroke:none;fill-rule:nonzero;fill:#6c757d;fill-opacity:1;" d="M 249.179688 147.773438 C 248.480469 147.167969 247.421875 147.25 246.828125 147.945312 L 244.335938 150.835938 C 223.523438 121.132812 213.046875 93.386719 208.730469 79.796875 C 210.28125 74.796875 210.945312 71.914062 210.972656 71.792969 C 211.179688 70.894531 210.617188 70 209.714844 69.796875 C 208.824219 69.585938 207.925781 70.152344 207.71875 71.050781 C 207.714844 71.070312 207.476562 72.101562 206.976562 73.925781 C 206.476562 72.113281 206.242188 71.113281 206.226562 71.050781 C 206.023438 70.15625 205.136719 69.59375 204.230469 69.796875 C 203.332031 70.003906 202.773438 70.894531 202.972656 71.796875 C 202.996094 71.898438 203.65625 74.710938 205.160156 79.550781 C 169.511719 86.058594 139.855469 81.019531 132.554688 79.550781 C 134.054688 74.714844 134.710938 71.902344 134.738281 71.796875 C 134.945312 70.898438 134.378906 70.007812 133.480469 69.800781 C 132.585938 69.59375 131.691406 70.160156 131.484375 71.054688 C 131.46875 71.128906 131.140625 72.527344 130.425781 75.023438 C 129.710938 72.492188 129.382812 71.085938 129.378906 71.054688 C 129.171875 70.15625 128.285156 69.597656 127.378906 69.796875 C 126.480469 70.003906 125.921875 70.894531 126.121094 71.796875 C 126.164062 71.96875 126.90625 75.199219 128.667969 80.769531 C 124.136719 94.789062 113.550781 122.246094 92.898438 151.523438 L 89.816406 147.953125 C 89.21875 147.253906 88.164062 147.171875 87.464844 147.777344 C 86.769531 148.378906 86.691406 149.429688 87.292969 150.128906 L 91.183594 154.644531 C 91.515625 155.027344 91.980469 155.222656 92.449219 155.222656 C 92.632812 155.222656 92.8125 155.1875 92.984375 155.128906 C 93.15625 155.183594 93.332031 155.222656 93.515625 155.222656 L 113.3125 155.222656 C 113.828125 155.222656 114.308594 154.984375 114.625 154.582031 C 123.84375 142.773438 128.339844 129.171875 130.429688 120.523438 C 132.519531 129.171875 137.015625 142.773438 146.234375 154.582031 C 146.550781 154.984375 147.035156 155.222656 147.546875 155.222656 L 244.191406 155.222656 C 244.40625 155.222656 244.605469 155.171875 244.796875 155.09375 C 244.84375 155.074219 244.886719 155.054688 244.929688 155.035156 C 245.117188 154.9375 245.289062 154.816406 245.433594 154.65625 C 245.441406 154.648438 245.445312 154.648438 245.453125 154.644531 L 249.34375 150.128906 C 249.949219 149.429688 249.871094 148.378906 249.171875 147.777344 Z M 165.554688 151.015625 C 165.167969 151.285156 164.722656 151.410156 164.285156 151.410156 C 163.566406 151.410156 162.859375 151.070312 162.421875 150.429688 C 145.964844 126.355469 136.230469 103.914062 130.957031 89.332031 C 130.535156 88.164062 131.140625 86.871094 132.3125 86.445312 C 133.480469 86.019531 134.777344 86.628906 135.199219 87.800781 C 140.378906 102.140625 149.957031 124.207031 166.144531 147.886719 C 166.847656 148.917969 166.582031 150.320312 165.554688 151.019531 Z M 165.554688 151.015625 "/></g></g></svg>